REM MD5 d82fe1b02d954f533e45bca448b49bfd
FILE "Hogs of War (Europe).bin" BINARY
  TRACK 01 MODE2/2352
    INDEX 01 00:00:00
  TRACK 02 AUDIO
    INDEX 00 44:23:18
    INDEX 01 44:25:18
  TRACK 03 AUDIO
    INDEX 00 47:12:16
    INDEX 01 47:14:16
REM LEADOUT 48:24:12
